<?xml version="1.0" standalone="no"?>
<!DOCTYPE svg PUBLIC "-//W3C//DTD SVG 20010904//EN"
 "http://www.w3.org/TR/2001/REC-SVG-20010904/DTD/svg10.dtd">
<svg version="1.0" xmlns="http://www.w3.org/2000/svg"
 width="700.000000pt" height="700.000000pt" viewBox="0 0 700.000000 700.000000"
 preserveAspectRatio="xMidYMid meet">
<metadata>
Created by potrace 1.14, written by Peter Selinger 2001-2017
</metadata>
<g transform="translate(0.000000,700.000000) scale(0.100000,-0.100000)"
fill="#000000" stroke="none">
<path d="M3458 6635 c-2 -2 -21 -6 -43 -9 -76 -12 -132 -60 -267 -226 -222
-273 -519 -495 -1003 -750 -203 -106 -323 -181 -480 -299 -426 -318 -750 -708
-929 -1117 -67 -152 -135 -373 -151 -494 -4 -24 -8 -47 -10 -50 -7 -12 -18
-165 -20 -282 -4 -354 84 -716 257 -1047 68 -130 205 -338 258 -391 14 -14 70
-90 70 -94 0 -3 -5 -6 -10 -6 -16 0 -225 -106 -302 -153 -38 -23 -77 -46 -86
-52 -58 -34 -118 -79 -237 -178 -229 -190 -395 -425 -473 -671 -25 -75 -29
-102 -21 -112 6 -8 15 -14 19 -14 5 0 50 -20 102 -44 140 -65 306 -124 475
-167 157 -40 165 -42 273 -58 158 -24 253 -31 420 -32 192 0 275 7 540 46 14
2 75 15 136 29 457 103 950 349 1193 595 60 61 73 69 144 91 l77 24 68 -22
c70 -23 229 -59 289 -66 30 -3 92 -49 143 -107 3 -3 38 -31 79 -63 189 -145
460 -286 733 -381 176 -62 441 -125 583 -141 27 -3 56 -7 62 -9 23 -7 216 -18
328 -19 112 0 343 12 354 18 3 2 31 7 61 10 233 28 565 128 817 247 86 40 92
45 87 68 -31 140 -122 329 -227 470 -194 259 -531 515 -867 657 l-87 37 77 96
c331 411 510 900 513 1401 1 110 -9 276 -18 302 -2 7 -6 32 -9 54 -6 52 -21
113 -57 240 -80 282 -239 578 -453 844 -88 110 -346 365 -463 457 -197 156
-366 266 -608 393 -462 242 -752 460 -977 732 -163 198 -205 229 -325 242 -18
2 -33 2 -35 1z m119 -422 c265 -319 587 -561 1104 -831 300 -156 533 -326 760
-552 309 -308 509 -636 605 -990 16 -59 18 -67 28 -120 3 -19 8 -46 11 -59 24
-126 24 -426 0 -551 -3 -14 -10 -52 -16 -85 -40 -224 -148 -484 -293 -709
-176 -274 -449 -536 -706 -679 -182 -102 -470 -210 -622 -232 -24 -4 -45 -8
-48 -10 -6 -3 -79 -14 -175 -24 -71 -8 -343 -6 -380 2 -11 3 -45 8 -75 12 -52
7 -53 8 -35 24 23 19 111 122 142 167 130 187 227 499 249 800 13 168 6 506
-10 533 -2 3 -7 29 -10 56 -16 146 -101 375 -195 525 -29 47 -105 145 -149
192 l-44 46 -101 -105 c-56 -58 -101 -111 -99 -117 2 -6 9 -14 16 -18 7 -4 33
-33 57 -65 24 -32 49 -63 55 -70 21 -22 102 -196 124 -263 24 -77 26 -87 47
-205 23 -134 22 -493 -3 -617 -2 -13 -8 -48 -14 -78 -12 -64 -46 -195 -59
-225 -78 -177 -114 -236 -196 -324 -160 -171 -393 -263 -670 -264 -157 -1
-332 22 -485 63 -25 7 -46 12 -47 11 -5 -1 -217 76 -263 97 -269 118 -428 227
-626 432 -332 342 -541 769 -590 1208 -15 127 -9 378 11 487 64 347 221 671
468 969 65 80 271 286 338 341 34 27 67 54 73 60 68 65 338 239 521 335 239
126 562 324 670 412 234 190 328 282 465 456 36 45 66 82 67 82 1 0 46 -53
100 -117z m-1979 -4746 c26 -18 64 -41 85 -52 51 -26 52 -30 14 -45 -67 -27
-249 -121 -327 -170 -124 -76 -256 -181 -382 -302 -16 -16 -31 -28 -34 -28 -3
0 -33 27 -67 61 l-61 61 56 51 c199 185 369 307 563 406 55 28 101 51 103 51
1 0 24 -15 50 -33z m3889 -34 c144 -76 400 -252 411 -282 1 -4 -7 -18 -19 -32
-12 -13 -29 -33 -38 -44 -9 -11 -27 -29 -39 -39 -22 -19 -23 -19 -50 6 -48 44
-144 113 -237 169 -99 60 -275 149 -296 149 -10 0 -10 3 1 14 19 18 162 106
172 106 4 0 47 -21 95 -47z"/>
</g>
</svg>
